<svg width="56" height="56" viewBox="0 0 56 56" fill="none" xmlns="http://www.w3.org/2000/svg">
<path d="M28 56C43.464 56 56 43.464 56 28C56 12.536 43.464 0 28 0C12.536 0 0 12.536 0 28C0 43.464 12.536 56 28 56Z" fill="#FFE7E7"/>
<path d="M28.14 50.55C25.7933 50.55 23.5567 50.1833 21.43 49.45C19.3033 48.7167 17.4517 47.69 15.875 46.37C14.2983 45.05 13.1433 43.5283 12.41 41.805C12.0433 41.035 12.0433 40.32 12.41 39.66C12.8133 39 13.4733 38.5783 14.39 38.395C15.05 38.2483 15.6917 38.3583 16.315 38.725C16.975 39.055 17.47 39.5683 17.8 40.265C18.24 41.1817 18.955 42.025 19.945 42.795C20.9717 43.565 22.2 44.1883 23.63 44.665C25.06 45.1417 26.5633 45.38 28.14 45.38C29.9 45.38 31.5133 45.105 32.98 44.555C34.4833 44.005 35.6933 43.2167 36.61 42.19C37.5267 41.1267 37.985 39.825 37.985 38.285C37.985 36.3417 37.215 34.6 35.675 33.06C34.1717 31.52 31.6783 30.5667 28.195 30.2C23.6483 29.76 20.0733 28.4217 17.47 26.185C14.8667 23.9483 13.565 21.18 13.565 17.88C13.565 15.46 14.2433 13.4067 15.6 11.72C16.9567 10.0333 18.79 8.75 21.1 7.87C23.4467 6.99 26.05 6.55 28.91 6.55C31.1467 6.55 33.09 6.86166 34.74 7.485C36.4267 8.10833 37.8933 8.97 39.14 10.07C40.3867 11.17 41.4683 12.4717 42.385 13.975C42.8983 14.7817 43.1 15.5517 42.99 16.285C42.9167 16.9817 42.5683 17.5317 41.945 17.935C41.2483 18.375 40.4967 18.4667 39.69 18.21C38.8833 17.9533 38.2783 17.4767 37.875 16.78C37.2883 15.7167 36.5733 14.8183 35.73 14.085C34.8867 13.3517 33.8967 12.7833 32.76 12.38C31.6233 11.94 30.285 11.72 28.745 11.72C26.0317 11.6833 23.7583 12.1967 21.925 13.26C20.0917 14.2867 19.175 15.8817 19.175 18.045C19.175 19.145 19.45 20.2083 20 21.235C20.5867 22.225 21.6317 23.0867 23.135 23.82C24.675 24.5533 26.875 25.0667 29.735 25.36C34.0983 25.8 37.49 27.1383 39.91 29.375C42.3667 31.575 43.595 34.49 43.595 38.12C43.595 40.21 43.155 42.025 42.275 43.565C41.4317 45.105 40.2767 46.4067 38.81 47.47C37.38 48.4967 35.73 49.2667 33.86 49.78C32.0267 50.2933 30.12 50.55 28.14 50.55Z" fill="#333333"/>
</svg>
