<svg width="75" height="19" viewBox="0 0 75 19" fill="none" xmlns="http://www.w3.org/2000/svg">
<g clip-path="url(#clip0_2_8)">
<path d="M10.2955 4.9091C10.1932 4.04546 9.77841 3.37501 9.05114 2.89773C8.32386 2.42046 7.43182 2.18182 6.375 2.18182C5.60227 2.18182 4.92614 2.30682 4.34659 2.55682C3.77273 2.80682 3.32386 3.15057 3 3.58807C2.68182 4.02557 2.52273 4.52273 2.52273 5.07955C2.52273 5.54546 2.63352 5.94603 2.85511 6.28126C3.08239 6.6108 3.37216 6.88637 3.72443 7.10796C4.0767 7.32387 4.44602 7.50285 4.83239 7.64489C5.21875 7.78126 5.57386 7.89205 5.89773 7.97728L7.67045 8.45455C8.125 8.57387 8.63068 8.73864 9.1875 8.94887C9.75 9.1591 10.2869 9.44603 10.7983 9.80966C11.3153 10.1676 11.7415 10.6278 12.0767 11.1903C12.4119 11.7528 12.5795 12.4432 12.5795 13.2614C12.5795 14.2046 12.3324 15.0568 11.8381 15.8182C11.3494 16.5796 10.6335 17.1847 9.69034 17.6335C8.75284 18.0824 7.61364 18.3068 6.27273 18.3068C5.02273 18.3068 3.94034 18.1051 3.02557 17.7017C2.11648 17.2983 1.40057 16.7358 0.877841 16.0142C0.360795 15.2926 0.0681818 14.4546 0 13.5H2.18182C2.23864 14.1591 2.46023 14.7046 2.84659 15.1364C3.23864 15.5625 3.73295 15.8807 4.32955 16.0909C4.93182 16.2955 5.57955 16.3977 6.27273 16.3977C7.07955 16.3977 7.80398 16.2671 8.44602 16.0057C9.08807 15.7386 9.59659 15.3693 9.97159 14.8977C10.3466 14.4205 10.5341 13.8636 10.5341 13.2273C10.5341 12.6477 10.3722 12.1761 10.0483 11.8125C9.72443 11.4489 9.2983 11.1534 8.76989 10.9261C8.24148 10.6989 7.67045 10.5 7.05682 10.3296L4.90909 9.71591C3.54545 9.32387 2.46591 8.76421 1.67045 8.03694C0.875 7.30966 0.477273 6.35796 0.477273 5.18182C0.477273 4.20455 0.741477 3.35228 1.26989 2.62501C1.80398 1.89205 2.51989 1.32387 3.41761 0.92046C4.32102 0.511369 5.32955 0.306824 6.44318 0.306824C7.56818 0.306824 8.56818 0.508528 9.44318 0.911937C10.3182 1.30966 11.0114 1.85512 11.5227 2.5483C12.0398 3.24148 12.3125 4.02841 12.3409 4.9091H10.2955Z" fill="black"/>
<path d="M16.0547 18V0.54546H26.5888V2.42046H18.1683V8.31819H26.0433V10.1932H18.1683V16.125H26.7251V18H16.0547Z" fill="black"/>
<path d="M51.4034 11.4545V12.3068H48.0114V11.4545H51.4034ZM49 9.88636H50.0057V16.125C50.0057 16.4091 50.0469 16.6222 50.1293 16.7642C50.2145 16.9034 50.3224 16.9972 50.4531 17.0454C50.5866 17.0909 50.7273 17.1136 50.875 17.1136C50.9858 17.1136 51.0767 17.1079 51.1477 17.0966C51.2187 17.0824 51.2756 17.071 51.3182 17.0625L51.5227 17.9659C51.4545 17.9915 51.3594 18.017 51.2372 18.0426C51.1151 18.071 50.9602 18.0852 50.7727 18.0852C50.4886 18.0852 50.2102 18.0241 49.9375 17.902C49.6676 17.7798 49.4432 17.5937 49.2642 17.3437C49.0881 17.0937 49 16.7784 49 16.3977V9.88636Z" fill="black"/>
<path d="M55.505 18.1364C54.9141 18.1364 54.3956 17.9957 53.9496 17.7145C53.5064 17.4332 53.1598 17.0398 52.9098 16.5341C52.6626 16.0284 52.5391 15.4375 52.5391 14.7614C52.5391 14.0795 52.6626 13.4844 52.9098 12.9758C53.1598 12.4673 53.5064 12.0724 53.9496 11.7912C54.3956 11.5099 54.9141 11.3693 55.505 11.3693C56.0959 11.3693 56.6129 11.5099 57.0561 11.7912C57.5021 12.0724 57.8487 12.4673 58.0959 12.9758C58.3459 13.4844 58.4709 14.0795 58.4709 14.7614C58.4709 15.4375 58.3459 16.0284 58.0959 16.5341C57.8487 17.0398 57.5021 17.4332 57.0561 17.7145C56.6129 17.9957 56.0959 18.1364 55.505 18.1364ZM55.505 17.2329C55.9538 17.2329 56.3231 17.1179 56.6129 16.8878C56.9027 16.6577 57.1172 16.3551 57.2564 15.9801C57.3956 15.6051 57.4652 15.1989 57.4652 14.7614C57.4652 14.3239 57.3956 13.9162 57.2564 13.5383C57.1172 13.1605 56.9027 12.8551 56.6129 12.6222C56.3231 12.3892 55.9538 12.2727 55.505 12.2727C55.0561 12.2727 54.6868 12.3892 54.397 12.6222C54.1072 12.8551 53.8928 13.1605 53.7535 13.5383C53.6143 13.9162 53.5447 14.3239 53.5447 14.7614C53.5447 15.1989 53.6143 15.6051 53.7535 15.9801C53.8928 16.3551 54.1072 16.6577 54.397 16.8878C54.6868 17.1179 55.0561 17.2329 55.505 17.2329Z" fill="black"/>
<path d="M62.6651 18.1364C62.0742 18.1364 61.5557 17.9957 61.1097 17.7145C60.6665 17.4332 60.32 17.0398 60.07 16.5341C59.8228 16.0284 59.6992 15.4375 59.6992 14.7614C59.6992 14.0795 59.8228 13.4844 60.07 12.9758C60.32 12.4673 60.6665 12.0724 61.1097 11.7912C61.5557 11.5099 62.0742 11.3693 62.6651 11.3693C63.256 11.3693 63.7731 11.5099 64.2163 11.7912C64.6623 12.0724 65.0089 12.4673 65.256 12.9758C65.506 13.4844 65.631 14.0795 65.631 14.7614C65.631 15.4375 65.506 16.0284 65.256 16.5341C65.0089 17.0398 64.6623 17.4332 64.2163 17.7145C63.7731 17.9957 63.256 18.1364 62.6651 18.1364ZM62.6651 17.2329C63.114 17.2329 63.4833 17.1179 63.7731 16.8878C64.0629 16.6577 64.2773 16.3551 64.4165 15.9801C64.5558 15.6051 64.6254 15.1989 64.6254 14.7614C64.6254 14.3239 64.5558 13.9162 64.4165 13.5383C64.2773 13.1605 64.0629 12.8551 63.7731 12.6222C63.4833 12.3892 63.114 12.2727 62.6651 12.2727C62.2163 12.2727 61.8469 12.3892 61.5572 12.6222C61.2674 12.8551 61.0529 13.1605 60.9137 13.5383C60.7745 13.9162 60.7049 14.3239 60.7049 14.7614C60.7049 15.1989 60.7745 15.6051 60.9137 15.9801C61.0529 16.3551 61.2674 16.6577 61.5572 16.8878C61.8469 17.1179 62.2163 17.2329 62.6651 17.2329Z" fill="black"/>
<path d="M68.1719 9.27272V18H67.1662V9.27272H68.1719Z" fill="black"/>
<path d="M74.6502 12.9204L73.7468 13.1761C73.69 13.0256 73.6062 12.8793 73.4954 12.7372C73.3874 12.5923 73.2397 12.473 73.0522 12.3793C72.8647 12.2855 72.6246 12.2386 72.332 12.2386C71.9315 12.2386 71.5977 12.331 71.3306 12.5156C71.0664 12.6974 70.9343 12.929 70.9343 13.2102C70.9343 13.4602 71.0252 13.6577 71.207 13.8026C71.3888 13.9474 71.6729 14.0682 72.0593 14.1648L73.0309 14.4034C73.6161 14.5454 74.0522 14.7628 74.3391 15.0554C74.6261 15.3452 74.7695 15.7187 74.7695 16.1761C74.7695 16.5511 74.6616 16.8864 74.4457 17.1818C74.2326 17.4773 73.9343 17.7102 73.5508 17.8807C73.1673 18.0511 72.7212 18.1364 72.2127 18.1364C71.5451 18.1364 70.9925 17.9915 70.555 17.7017C70.1175 17.4119 69.8406 16.9886 69.7241 16.4318L70.6786 16.1932C70.7695 16.5454 70.9414 16.8097 71.1942 16.9858C71.4499 17.1619 71.7837 17.25 72.1957 17.25C72.6644 17.25 73.0366 17.1506 73.3121 16.9517C73.5906 16.75 73.7298 16.5085 73.7298 16.2273C73.7298 16 73.6502 15.8097 73.4911 15.6562C73.332 15.5 73.0877 15.3835 72.7582 15.3068L71.6673 15.0511C71.0678 14.9091 70.6275 14.6889 70.3462 14.3906C70.0678 14.0895 69.9286 13.7131 69.9286 13.2614C69.9286 12.892 70.0323 12.5653 70.2397 12.2812C70.4499 11.9972 70.7354 11.7741 71.0962 11.6122C71.4599 11.4503 71.8718 11.3693 72.332 11.3693C72.9798 11.3693 73.4883 11.5114 73.8576 11.7954C74.2298 12.0795 74.494 12.4545 74.6502 12.9204Z" fill="black"/>
<circle cx="37.1364" cy="9.5" r="9" stroke="black"/>
<circle cx="40.6364" cy="7" r="1" fill="black"/>
<circle cx="33.6364" cy="7" r="0.5" fill="black" stroke="black"/>
<g filter="url(#filter0_d_2_8)">
<path d="M34.6364 12C35.6981 12.939 37.6364 14 39.6364 12" stroke="black" stroke-miterlimit="2.3662" stroke-linecap="round"/>
</g>
</g>
<defs>
<filter id="filter0_d_2_8" x="30.1364" y="11.5" width="14" height="10.136" filterUnits="userSpaceOnUse" color-interpolation-filters="sRGB">
<feFlood flood-opacity="0" result="BackgroundImageFix"/>
<feColorMatrix in="SourceAlpha" type="matrix" values="0 0 0 0 0 0 0 0 0 0 0 0 0 0 0 0 0 0 127 0" result="hardAlpha"/>
<feOffset dy="4"/>
<feGaussianBlur stdDeviation="2"/>
<feComposite in2="hardAlpha" operator="out"/>
<feColorMatrix type="matrix" values="0 0 0 0 0 0 0 0 0 0 0 0 0 0 0 0 0 0 0.25 0"/>
<feBlend mode="normal" in2="BackgroundImageFix" result="effect1_dropShadow_2_8"/>
<feBlend mode="normal" in="SourceGraphic" in2="effect1_dropShadow_2_8" result="shape"/>
</filter>
<clipPath id="clip0_2_8">
<rect width="75" height="19" fill="white"/>
</clipPath>
</defs>
</svg>
