<svg width="139" height="60" viewBox="0 0 139 60" fill="none" xmlns="http://www.w3.org/2000/svg">
<path d="M22.272 56.64C19.5413 56.64 16.9387 56.2133 14.464 55.36C11.9893 54.5067 9.83467 53.312 8 51.776C6.16533 50.24 4.82133 48.4693 3.968 46.464C3.54133 45.568 3.54133 44.736 3.968 43.968C4.43733 43.2 5.20533 42.7093 6.272 42.496C7.04 42.3253 7.78667 42.4533 8.512 42.88C9.28 43.264 9.856 43.8613 10.24 44.672C10.752 45.7387 11.584 46.72 12.736 47.616C13.9307 48.512 15.36 49.2373 17.024 49.792C18.688 50.3467 20.4373 50.624 22.272 50.624C24.32 50.624 26.1973 50.304 27.904 49.664C29.6533 49.024 31.0613 48.1067 32.128 46.912C33.1947 45.6747 33.728 44.16 33.728 42.368C33.728 40.1067 32.832 38.08 31.04 36.288C29.2907 34.496 26.3893 33.3867 22.336 32.96C17.0453 32.448 12.8853 30.8907 9.856 28.288C6.82667 25.6853 5.312 22.464 5.312 18.624C5.312 15.808 6.10133 13.4187 7.68 11.456C9.25867 9.49333 11.392 8 14.08 6.976C16.8107 5.952 19.84 5.44 23.168 5.44C25.7707 5.44 28.032 5.80266 29.952 6.528C31.9147 7.25333 33.6213 8.256 35.072 9.536C36.5227 10.816 37.7813 12.3307 38.848 14.08C39.4453 15.0187 39.68 15.9147 39.552 16.768C39.4667 17.5787 39.0613 18.2187 38.336 18.688C37.5253 19.2 36.6507 19.3067 35.712 19.008C34.7733 18.7093 34.0693 18.1547 33.6 17.344C32.9173 16.1067 32.0853 15.0613 31.104 14.208C30.1227 13.3547 28.9707 12.6933 27.648 12.224C26.3253 11.712 24.768 11.456 22.976 11.456C19.8187 11.4133 17.1733 12.0107 15.04 13.248C12.9067 14.4427 11.84 16.2987 11.84 18.816C11.84 20.096 12.16 21.3333 12.8 22.528C13.4827 23.68 14.6987 24.6827 16.448 25.536C18.24 26.3893 20.8 26.9867 24.128 27.328C29.2053 27.84 33.152 29.3973 35.968 32C38.8267 34.56 40.256 37.952 40.256 42.176C40.256 44.608 39.744 46.72 38.72 48.512C37.7387 50.304 36.3947 51.8187 34.688 53.056C33.024 54.2507 31.104 55.1467 28.928 55.744C26.7947 56.3413 24.576 56.64 22.272 56.64ZM53.7905 56C52.8518 56 52.0625 55.68 51.4225 55.04C50.7825 54.4 50.4625 53.6107 50.4625 52.672V9.344C50.4625 8.36266 50.7825 7.57333 51.4225 6.976C52.0625 6.336 52.8518 6.016 53.7905 6.016H82.7185C83.6998 6.016 84.4892 6.31467 85.0865 6.912C85.6838 7.46667 85.9825 8.21333 85.9825 9.152C85.9825 10.048 85.6838 10.7733 85.0865 11.328C84.4892 11.8827 83.6998 12.16 82.7185 12.16H57.1185V27.712H75.4865C76.4678 27.712 77.2572 28.0107 77.8545 28.608C78.4518 29.1627 78.7505 29.888 78.7505 30.784C78.7505 31.68 78.4518 32.4267 77.8545 33.024C77.2572 33.5787 76.4678 33.856 75.4865 33.856H57.1185V49.856H82.7185C83.6998 49.856 84.4892 50.1333 85.0865 50.688C85.6838 51.2427 85.9825 51.968 85.9825 52.864C85.9825 53.8027 85.6838 54.5707 85.0865 55.168C84.4892 55.7227 83.6998 56 82.7185 56H53.7905Z" fill="#333333"/>
<circle cx="114" cy="31" r="22" stroke="#333333" stroke-width="6"/>
<circle cx="107" cy="26" r="3" fill="#333333"/>
<path d="M125 26C125 27.6569 123.657 29 122 29C120.343 29 119 27.6569 119 26C119 24.3431 120.343 23 122 23C123.657 23 125 24.3431 125 26Z" fill="#333333"/>
<path d="M104 38C109 43 120 43 125 38" stroke="#333333" stroke-width="4" stroke-linecap="round"/>
</svg>
