<svg width="26" height="26" viewBox="0 0 26 26" fill="none" xmlns="http://www.w3.org/2000/svg">
<mask id="mask0_1_20" style="mask-type:alpha" maskUnits="userSpaceOnUse" x="0" y="0" width="26" height="27">
<path d="M13 26.001C20.1797 26.001 26 20.1807 26 13.001C26 5.8213 20.1797 0.000999451 13 0.000999451C5.8203 0.000999451 0 5.8213 0 13.001C0 20.1807 5.8203 26.001 13 26.001Z" fill="white"/>
</mask>
<g mask="url(#mask0_1_20)">
<path d="M0 0.0019989H26V26.002H0V0.0019989Z" fill="url(#paint0_linear_1_20)"/>
<path d="M0 16H8V26H0V16Z" fill="url(#paint1_linear_1_20)"/>
<path d="M8 12.8C8 11.12 8 10.28 8.327 9.638C8.61462 9.07354 9.07354 8.61462 9.638 8.327C10.28 8 11.12 8 12.8 8H18V26H8V12.8Z" fill="url(#paint2_linear_1_20)"/>
<path d="M18 0H26V26H18V0Z" fill="url(#paint3_linear_1_20)"/>
</g>
<defs>
<linearGradient id="paint0_linear_1_20" x1="18.633" y1="18.851" x2="-2.817" y2="-11.049" gradientUnits="userSpaceOnUse">
<stop stop-color="#4643B9"/>
<stop offset="1" stop-color="#1E8AFF"/>
</linearGradient>
<linearGradient id="paint1_linear_1_20" x1="8.527" y1="22.54" x2="-15.121" y2="18.421" gradientUnits="userSpaceOnUse">
<stop stop-color="#FF002E"/>
<stop offset="1" stop-color="#FFADA1"/>
</linearGradient>
<linearGradient id="paint2_linear_1_20" x1="69.5" y1="65.5" x2="75.453" y2="16.813" gradientUnits="userSpaceOnUse">
<stop stop-color="#3C3BA0"/>
<stop offset="0.49" stop-color="#1E8AFF"/>
<stop offset="1" stop-color="#00B2FF"/>
</linearGradient>
<linearGradient id="paint3_linear_1_20" x1="18" y1="1.337" x2="40.642" y2="13.037" gradientUnits="userSpaceOnUse">
<stop stop-color="#FFEA1A"/>
<stop offset="1" stop-color="#FFB800"/>
</linearGradient>
</defs>
</svg>
